<svg width="60" height="60" viewBox="0 0 60 60" fill="none" xmlns="http://www.w3.org/2000/svg">
<g clip-path="url(#clip0_1579_21)">
<path d="M19.7786 36.0997H27.9304C28.6338 36.0997 29.204 35.5295 29.204 34.8265C29.204 34.123 28.6336 33.5525 27.9304 33.5525H22.853L27.6175 28.7883C28.6404 27.7654 29.204 26.4054 29.204 24.9585C29.204 23.5118 28.6404 22.1518 27.6175 21.1289C26.5947 20.1058 25.2345 19.5426 23.7879 19.5426C22.341 19.5426 20.981 20.106 19.9583 21.1289C19.4608 21.626 19.4608 22.4326 19.9583 22.9301C20.4557 23.4272 21.262 23.4272 21.7595 22.9298C22.3011 22.3879 23.0217 22.0897 23.7879 22.0897C24.5541 22.0897 25.2747 22.3879 25.8164 22.9301C26.3584 23.4715 26.6567 24.192 26.6567 24.9585C26.6567 25.7248 26.3584 26.4453 25.8164 26.9871L18.8777 33.9259C18.5134 34.2899 18.4046 34.8379 18.6015 35.3139C18.7989 35.7896 19.2633 36.0997 19.7786 36.0997Z" fill="#111111"/>
<path d="M40.1799 33.553H39.0977V30.9949C39.0977 30.2918 38.5275 29.7213 37.8241 29.7213C37.1206 29.7213 36.5507 30.2918 36.5507 30.9949V33.553H33.5008L38.9859 21.3382C39.274 20.6966 38.9873 19.9427 38.3457 19.6546C37.704 19.3666 36.9502 19.653 36.6622 20.2946L30.3709 34.305C30.1939 34.699 30.2286 35.1559 30.4633 35.5188C30.6981 35.8814 31.1005 36.1 31.5325 36.1H36.5505V38.6586C36.5505 39.3617 37.1205 39.9323 37.8239 39.9323C38.5275 39.9323 39.0974 39.3617 39.0974 38.6586V36.1H40.1797C40.8832 36.1 41.4535 35.5299 41.4535 34.8268C41.4537 34.1234 40.8832 33.553 40.1799 33.553Z" fill="#333333"/>
<path d="M53.7883 29.1012C53.5609 28.7072 53.1402 28.4642 52.6854 28.4642H49.675C49.3717 23.6718 47.3618 19.2076 43.9356 15.7818C40.2076 12.0539 35.2513 10.001 29.9794 10.001C29.276 10.001 28.7058 10.5711 28.7058 11.2744C28.7058 11.978 29.2761 12.5479 29.9794 12.5479C39.0297 12.5479 46.4684 19.5782 47.1222 28.4644H44.2008C43.7456 28.4644 43.3253 28.7074 43.0979 29.1014C42.8701 29.4955 42.8701 29.981 43.0979 30.3751L47.34 37.723C47.5677 38.1171 47.9881 38.3596 48.4429 38.3596C48.898 38.3596 49.3185 38.1171 49.5458 37.723L53.7881 30.3751C54.0155 29.9808 54.0155 29.4953 53.7883 29.1012ZM48.4429 34.5386L46.4066 31.0114H50.4796L48.4429 34.5386Z" fill="#111111"/>
<path d="M26.0057 12.5475C26.3405 12.5475 26.6691 12.4109 26.9061 12.1739C27.143 11.9371 27.2794 11.6085 27.2794 11.2738C27.2794 10.9379 27.1432 10.6101 26.9061 10.3733C26.6693 10.1355 26.3405 10 26.0057 10C25.67 10 25.3421 10.1355 25.1048 10.3733C24.8679 10.6101 24.7321 10.9387 24.7321 11.2738C24.7321 11.6085 24.8679 11.9371 25.1048 12.1739C25.3421 12.4109 25.67 12.5475 26.0057 12.5475Z" fill="#111111"/>
<path d="M22.1851 12.5475C22.5199 12.5475 22.8486 12.4109 23.0854 12.1739C23.3231 11.9371 23.4587 11.6085 23.4587 11.2738C23.4587 10.9379 23.3231 10.6101 23.0854 10.3733C22.8486 10.1355 22.5199 10 22.1851 10C21.8502 10 21.5216 10.1355 21.2846 10.3733C21.0468 10.6101 20.9114 10.9379 20.9114 11.2738C20.9114 11.6085 21.0468 11.9371 21.2846 12.1739C21.5215 12.4109 21.8502 12.5475 22.1851 12.5475Z" fill="#111111"/>
<path d="M29.9796 46.9271C25.3878 46.9271 21.0712 45.139 17.8242 41.8925C14.8795 38.9478 13.1348 35.1225 12.8359 31.0106H15.7581H15.7592C16.4626 31.0106 17.0327 30.4406 17.0327 29.7371C17.0327 29.485 16.9594 29.2496 16.8327 29.052L12.6185 21.7526C12.3913 21.3586 11.9706 21.116 11.5156 21.116C11.0607 21.116 10.6402 21.3586 10.4128 21.7526L6.17055 29.1005C5.94315 29.4946 5.94315 29.9801 6.17055 30.3742C6.39794 30.7684 6.81842 31.0109 7.27338 31.0109H10.2837C10.5873 35.8038 12.597 40.2674 16.023 43.6934C19.751 47.4217 24.7074 49.4745 29.9794 49.4745C30.6829 49.4745 31.2528 48.9043 31.2528 48.2007C31.253 47.4976 30.683 46.9271 29.9796 46.9271ZM11.5158 24.9366L13.5522 28.4635H9.47942L11.5158 24.9366Z" fill="#111111"/>
<path d="M33.9533 46.9267C33.6183 46.9267 33.2898 47.0634 33.0527 47.2998C32.8159 47.5368 32.6797 47.8654 32.6797 48.2003C32.6797 48.536 32.8159 48.864 33.0527 49.101C33.2896 49.3384 33.6183 49.4741 33.9533 49.4741C34.2889 49.4741 34.6167 49.3384 34.8543 49.101C35.0911 48.864 35.2266 48.5356 35.2266 48.2003C35.2266 47.8654 35.0911 47.5368 34.8543 47.2998C34.6167 47.0634 34.2889 46.9267 33.9533 46.9267Z" fill="#111111"/>
<path d="M37.7739 46.9267C37.4383 46.9267 37.1103 47.0634 36.8734 47.2998C36.6359 47.5368 36.5004 47.8654 36.5004 48.2003C36.5004 48.5356 36.636 48.864 36.8734 49.101C37.1103 49.3384 37.4383 49.4741 37.7739 49.4741C38.1088 49.4741 38.4376 49.3384 38.6742 49.101C38.9111 48.864 39.0476 48.5356 39.0476 48.2003C39.0476 47.8654 38.9112 47.5368 38.6742 47.2998C38.4376 47.0634 38.1087 46.9267 37.7739 46.9267Z" fill="#111111"/>
</g>
<defs>
<clipPath id="clip0_1579_21">
<rect width="48" height="40" fill="white" transform="translate(6 10)"/>
</clipPath>
</defs>
</svg>
