<svg width="60" height="60" viewBox="0 0 60 60" fill="none" xmlns="http://www.w3.org/2000/svg">
<g clip-path="url(#clip0_1579_23)">
<path d="M2.14447 26.3732H1.57307C0.7042 26.3732 0 27.0776 0 27.9463C0 28.815 0.7042 29.5194 1.57307 29.5194H2.14447C3.0129 29.5194 3.71758 28.815 3.71758 27.9463C3.71758 27.0776 3.01312 26.3732 2.14447 26.3732Z" fill="#111111"/>
<path d="M15.2263 29.5194C16.095 29.5194 16.7996 28.815 16.7996 27.9463C16.7996 27.0776 16.095 26.3732 15.2263 26.3732H6.49629C5.62786 26.3732 4.92322 27.0776 4.92322 27.9463C4.92322 28.815 5.62786 29.5194 6.49629 29.5194H15.2263Z" fill="#111111"/>
<path d="M7.46685 23.6799H8.03177C8.90085 23.6799 9.60483 22.9755 9.60483 22.107C9.60483 21.238 8.90085 20.5338 8.03177 20.5338H7.46685C6.598 20.5338 5.8938 21.2382 5.8938 22.107C5.8938 22.9755 6.598 23.6799 7.46685 23.6799Z" fill="#111111"/>
<path d="M16.9471 20.5338H12.3843C11.5152 20.5338 10.8109 21.2382 10.8109 22.107C10.8109 22.9757 11.5152 23.6799 12.3843 23.6799H16.9471C17.816 23.6799 18.5202 22.9755 18.5202 22.107C18.5202 21.238 17.816 20.5338 16.9471 20.5338Z" fill="#111111"/>
<path d="M8.03876 32.2134H7.46685C6.598 32.2134 5.8938 32.9179 5.8938 33.7868C5.8938 34.6554 6.598 35.3596 7.46685 35.3596H8.03876C8.90763 35.3596 9.61182 34.6552 9.61182 33.7868C9.61182 32.9179 8.90763 32.2134 8.03876 32.2134Z" fill="#111111"/>
<path d="M16.947 32.2134H12.3909C11.522 32.2134 10.8177 32.9179 10.8177 33.7868C10.8177 34.6554 11.522 35.3596 12.3909 35.3596H16.947C17.8159 35.3596 18.5201 34.6552 18.5201 33.7868C18.5201 32.9179 17.8159 32.2134 16.947 32.2134Z" fill="#111111"/>
<path d="M58.8261 29.3037L51.2759 21.0457C50.9782 20.7195 50.5564 20.5338 50.1147 20.5338H41.1881V13.8488C41.1881 12.9799 40.484 12.2757 39.615 12.2757H10.9471C10.0782 12.2757 9.37402 12.9802 9.37402 13.8488C9.37402 14.7175 10.0782 15.4219 10.9471 15.4219H38.0417V40.4719H24.4745C23.7949 38.1892 21.6787 36.5197 19.1787 36.5197C16.6786 36.5197 14.5619 38.1892 13.8831 40.4719H10.9471C10.0782 40.4719 9.37402 41.1761 9.37402 42.0448C9.37402 42.9138 10.0782 43.6179 10.9471 43.6179H13.8831C14.5619 45.9001 16.6786 47.5698 19.1787 47.5698C21.6787 47.5698 23.7949 45.9001 24.4745 43.6179H39.6148H43.3438C44.0234 45.9001 46.14 47.5698 48.6396 47.5698C51.1402 47.5698 53.2564 45.9001 53.9357 43.6179H57.6649C58.5338 43.6179 59.238 42.9136 59.238 42.0448V30.3651C59.2385 29.9727 59.091 29.5938 58.8261 29.3037ZM19.1787 44.4241C17.8669 44.4241 16.7997 43.3569 16.7997 42.045C16.7997 40.7332 17.8669 39.6659 19.1787 39.6659C20.4904 39.6659 21.5576 40.7335 21.5576 42.045C21.5578 43.3569 20.4904 44.4241 19.1787 44.4241ZM48.6399 44.4241C47.3281 44.4241 46.261 43.3569 46.261 42.045C46.261 40.7332 47.3284 39.6659 48.6399 39.6659C49.952 39.6659 51.0192 40.7335 51.0192 42.045C51.0195 43.3569 49.952 44.4241 48.6399 44.4241ZM53.9361 40.4721C53.2568 38.1894 51.1406 36.5199 48.6401 36.5199C46.1403 36.5199 44.0238 38.1894 43.3443 40.4721H41.1884V23.6802H49.4219L54.0956 28.7922H45.185C44.3165 28.7922 43.6124 29.4966 43.6124 30.3653C43.6124 31.2344 44.3165 31.9384 45.185 31.9384H56.0923V40.4719L53.9361 40.4721Z" fill="#111111"/>
</g>
<defs>
<clipPath id="clip0_1579_23">
<rect width="59.2941" height="36" fill="white" transform="translate(0 12)"/>
</clipPath>
</defs>
</svg>
